<?xml version="1.0" encoding="utf-8"?>
<!-- Generator: Adobe Illustrator 16.0.0, SVG Export Plug-In . SVG Version: 6.00 Build 0)  -->
<!DOCTYPE svg PUBLIC "-//W3C//DTD SVG 1.1//EN" "http://www.w3.org/Graphics/SVG/1.1/DTD/svg11.dtd">
<svg version="1.1" id="Layer_1" xmlns="http://www.w3.org/2000/svg" xmlns:xlink="http://www.w3.org/1999/xlink" x="0px" y="0px"
	 width="400px" height="400px" viewBox="0 0 400 400" enable-background="new 0 0 400 400" xml:space="preserve">
<g>
	<polygon fill="#1673B6" points="78.696,335.62 51.625,32 349.076,32 321.979,335.571 200.168,369.341 "/>
	<polygon fill="#35A9DB" points="200.352,343.529 298.779,316.241 321.936,56.826 200.352,56.826 "/>
	<polygon fill="#FFFFFF" points="200.351,166.826 249.627,166.826 253.029,128.694 200.351,128.694 200.351,91.455 200.48,91.455
		293.727,91.455 292.834,101.446 283.682,204.062 200.351,204.062 	"/>
	<polygon fill="#EBEBEB" points="200.574,263.534 200.412,263.58 158.939,252.381 156.288,222.684 136.136,222.684 118.908,222.684 
		124.125,281.15 200.402,302.326 200.574,302.278 	"/>
	<polygon fill="#FFFFFF" points="246.461,202.486 241.977,252.355 200.445,263.566 200.445,302.308 276.785,281.15 277.344,274.859 
		283.822,202.486 	"/>
	<polygon fill="#EBEBEB" points="200.48,91.455 200.48,114.583 200.48,128.602 200.48,128.694 110.652,128.694 110.652,128.694 
		110.533,128.694 109.787,120.324 108.089,101.446 107.199,91.455 	"/>
	<polygon fill="#EBEBEB" points="200.351,166.83 200.351,189.959 200.351,203.977 200.351,204.068 159.523,204.068 159.523,204.068 
		159.404,204.068 158.658,195.699 156.96,176.821 156.07,166.83 	"/>
</g>
</svg>
