<?xml version="1.0" encoding="utf-8"?>
<!-- Generator: Adobe Illustrator 16.0.0, SVG Export Plug-In . SVG Version: 6.00 Build 0)  -->
<!DOCTYPE svg PUBLIC "-//W3C//DTD SVG 1.1//EN" "http://www.w3.org/Graphics/SVG/1.1/DTD/svg11.dtd">
<svg version="1.1" id="Layer_1" xmlns="http://www.w3.org/2000/svg" xmlns:xlink="http://www.w3.org/1999/xlink" x="0px" y="0px"
	 width="400px" height="400px" viewBox="0 0 400 400" enable-background="new 0 0 400 400" xml:space="preserve">
<g>
	<polygon fill="#E45126" points="78.695,334.619 51.625,31 349.075,31 321.978,334.57 200.168,368.34 	"/>
	<polygon fill="#F1682B" points="200.351,342.529 298.777,315.24 321.936,55.825 200.351,55.825 	"/>
	<polygon fill="#EBEBEB" points="200.351,168.434 151.076,168.434 147.671,130.302 200.351,130.302 200.351,93.063 200.222,93.063 
		106.976,93.063 107.868,103.054 117.02,205.67 200.351,205.67 	"/>
	<polygon fill="#EBEBEB" points="200.351,265.143 200.188,265.188 158.715,253.988 156.063,224.291 135.913,224.291 
		118.684,224.291 123.9,282.758 200.179,303.934 200.351,303.887 	"/>
	<polygon fill="#FFFFFF" points="200.222,168.434 200.222,205.67 246.076,205.67 241.754,253.963 200.222,265.174 200.222,303.916 
		276.562,282.758 277.121,276.469 285.871,178.433 286.779,168.434 276.746,168.434 	"/>
	<polygon fill="#FFFFFF" points="200.222,93.063 200.222,116.191 200.222,130.21 200.222,130.302 290.049,130.302 290.049,130.302 
		290.168,130.302 290.916,121.932 292.611,103.054 293.502,93.063 	"/>
</g>
</svg>
